<svg width="55" height="80" viewBox="0 0 55 80" version="1.1" xmlns="http://www.w3.org/2000/svg"><title>Group 4</title><g id="1920-x-programfairplay.org" stroke="none" stroke-width="1" fill="none" fill-rule="evenodd"><g id="Desktop-HD-1440" transform="translate(-1051 -2856)"><g id="SEKCJA3" transform="translate(490 2728)"><g id="52920" transform="translate(479 129)"><g id="Group-4" transform="translate(83)"><path id="Stroke-1" stroke="#F10000" d="M.18 77.9h53.283V10.3H.18z"></path><path id="Stroke-3" stroke="#F10000" d="M5.856 72.299H47.78V15.902H5.856z"></path><path d="M30.446 7.87l-.273-.866c.57-.72.97-1.589.97-2.577 0-2.352-1.936-4.26-4.321-4.26-2.389 0-4.321 1.908-4.321 4.26 0 .992.397 1.866.97 2.585l-.277.858h-6.032v10.328h19.312V7.87h-6.028z" id="Fill-4" fill="#FFF"></path><path d="M30.446 7.87l-.273-.866c.57-.72.97-1.589.97-2.577 0-2.352-1.936-4.26-4.321-4.26-2.389 0-4.321 1.908-4.321 4.26 0 .992.397 1.866.97 2.585l-.277.858h-6.032v10.328h19.312V7.87h-6.028z" id="Stroke-6" stroke="#F10000"></path><path d="M36.2 27.245c0-.292-.008-.585-.024-.877l-4.233 4.182-1.74-1.712 7.063-6.96 7.06 6.96-1.737 1.712-3.948-3.886c.008.194.016.388.016.581 0 14.194-11.86 25.744-26.435 25.744v-2.423c13.22 0 23.978-10.463 23.978-23.32" id="Fill-8" stroke="#FFF" stroke-width="1.5" fill="#F10000"></path><path d="M34.07 53.932c0-.96-.781-1.735-1.76-1.735-.973 0-1.763.774-1.763 1.735 0 .96.79 1.735 1.764 1.735.978 0 1.76-.775 1.76-1.735" id="Fill-10" fill="#F10000"></path><path d="M39.794 50.46c0-.957-.782-1.735-1.76-1.735-.974 0-1.764.778-1.764 1.735 0 .96.79 1.735 1.764 1.735.978 0 1.76-.775 1.76-1.735" id="Fill-12" fill="#F10000"></path><path d="M33.57 58.25a4.548 4.548 0 0 0 6.277 1.142 4.416 4.416 0 0 0 1.162-6.194" id="Stroke-14" stroke="#F10000"></path><path d="M28.019 4.313a1.19 1.19 0 0 0-1.199-1.178c-.665 0-1.198.526-1.198 1.178 0 .652.533 1.182 1.198 1.182.658 0 1.199-.53 1.199-1.182" id="Fill-16" fill="#F10000"></path><path d="M20.77 58.153l-8.871 8.802" id="Stroke-18" stroke="#F10000"></path><path d="M20.8 66.927l-8.934-8.743" id="Stroke-20" stroke="#F10000"></path><path d="M21.998 36.587c0-2.799-2.3-5.072-5.142-5.072-2.842 0-5.143 2.273-5.143 5.072 0 2.798 2.3 5.071 5.143 5.071 2.841 0 5.142-2.273 5.142-5.071z" id="Stroke-22" stroke="#F10000"></path></g></g></g></g></g></svg>