<svg width="55" height="78" viewBox="0 0 55 78" version="1.1" xmlns="http://www.w3.org/2000/svg"><title>Dziecko ico</title><g id="1920-x-programfairplay.org" stroke="none" stroke-width="1" fill="none" fill-rule="evenodd"><g id="Desktop-HD-1440" transform="translate(-573 -3128)" stroke="#F10000"><g id="SEKCJA3" transform="translate(490 2728)"><g id="1784" transform="translate(0 401)"><g id="Dziecko-ico" transform="translate(84)"><path d="M17.832 43.472v1.267c0 3.885 4.04 8.39 8.182 8.39 4.154 0 8.566-5.41 8.566-8.39v-.955" id="Stroke-1"></path><path d="M43.374 25.164v3.869c0 11.864-9.784 16.21-16.96 16.21-7.17 0-16.964-4.346-16.964-16.21v-1.95" id="Stroke-3"></path><path d="M32.493 23.325c-14.561 7.6-26.37 2.708-26.37 2.708V16.63C6.122 5.909 14.77.312 25.43.312v3.051c10.667 0 19.316 1.65 19.316 13.266l1.181 8.686c-7.883 0-12.614-2.409-12.614-2.409l-.82.419z" id="Stroke-5"></path><path d="M50.022 70.358c-3.62 2.184-11.126 5.472-23.61 5.472-18.7 0-26.1-7.379-26.1-7.379 0-10.49 7.055-19.365 16.752-22.298" id="Stroke-7"></path><path d="M35.453 46.02C45.38 48.811 52.66 57.793 52.66 68.453" id="Stroke-9"></path><path d="M13 74.534V65.11" id="Stroke-11"></path><path d="M40 74.534V65.11" id="Stroke-13"></path></g></g></g></g></g></svg>