<svg width="78" height="78" viewBox="0 0 78 78" version="1.1" xmlns="http://www.w3.org/2000/svg"><title>Urząd gminy ico</title><g id="1920-x-programfairplay.org" stroke="none" stroke-width="1" fill="none" fill-rule="evenodd"><g id="Desktop-HD-1440" transform="translate(-1040 -3408)" stroke="#F10000"><g id="SEKCJA3" transform="translate(490 2728)"><g id="29" transform="translate(479 681)"><g id="Urząd-gminy-ico" transform="translate(71)"><path id="Stroke-1" stroke-linejoin="round" d="M2.77 32.384v3.897h71.954v-3.897L38.747 15.642z"></path><path id="Stroke-3" stroke-linejoin="round" d="M38.746 15.64V.16h14.153V7.9H41.954"></path><path d="M42.616 27.232c0-2.143-1.728-3.89-3.872-3.89-2.14 0-3.873 1.747-3.873 3.89a3.88 3.88 0 0 0 3.873 3.885 3.877 3.877 0 0 0 3.872-3.885z" id="Stroke-5"></path><path id="Stroke-7" d="M11.776 65.184h6.42v-23.19h-6.42z"></path><path d="M20.837 37.484v2.254a2.252 2.252 0 0 1-2.247 2.258h-7.219a2.251 2.251 0 0 1-2.243-2.258v-2.254" id="Stroke-9"></path><path d="M9.616 70.641v-2.254a2.25 2.25 0 0 1 2.243-2.254h7.22a2.251 2.251 0 0 1 2.246 2.254v2.254" id="Stroke-10"></path><path id="Stroke-11" d="M35.538 65.184h6.416v-23.19h-6.416z"></path><path d="M44.602 37.484v2.254a2.256 2.256 0 0 1-2.25 2.258h-7.216a2.252 2.252 0 0 1-2.247-2.258v-2.254" id="Stroke-12"></path><path d="M33.123 70.641v-2.254a2.254 2.254 0 0 1 2.247-2.254h7.215a2.255 2.255 0 0 1 2.251 2.254v2.254" id="Stroke-13"></path><path id="Stroke-14" d="M59.296 65.184h6.42v-23.19h-6.42z"></path><path d="M68.36 37.484v2.254a2.255 2.255 0 0 1-2.247 2.258h-7.22a2.257 2.257 0 0 1-2.246-2.258v-2.254" id="Stroke-15"></path><path d="M56.63 70.641v-2.254a2.257 2.257 0 0 1 2.247-2.254h7.22a2.254 2.254 0 0 1 2.246 2.254v2.254" id="Stroke-16"></path><path d="M3.205 70.641H75.16" id="Stroke-17"></path><path d="M77.267 75.975H0" id="Stroke-18"></path></g></g></g></g></g></svg>