<svg width="60" height="75" viewBox="0 0 60 75" version="1.1" xmlns="http://www.w3.org/2000/svg"><title>Stoper ico</title><g id="1920-x-programfairplay.org" stroke="none" stroke-width="1" fill="none" fill-rule="evenodd"><g id="Desktop-HD-1440" transform="translate(-1049 -3122)"><g id="SEKCJA3" transform="translate(490 2728)"><g id="4410" transform="translate(480 395)"><g id="Stoper-ico" transform="translate(80)"><path d="M36.373 7.728c0-4.098-3.29-7.423-7.348-7.423-4.054 0-7.34 3.325-7.34 7.423s3.286 7.42 7.34 7.42c4.059 0 7.348-3.322 7.348-7.42z" id="Stroke-1" stroke="#F10000"></path><path d="M57.755 44.186c0-16.034-12.862-29.039-28.73-29.039C13.158 15.147.303 28.152.303 44.186c0 16.038 12.855 29.039 28.722 29.039 15.868 0 28.73-13.001 28.73-29.04z" id="Stroke-3" stroke="#F10000"></path><path d="M5.279 43.475h11.048" id="Stroke-5" stroke="#F10000"></path><path d="M41.73 43.475h11.044" id="Stroke-7" stroke="#F10000"></path><path d="M28.54 57.359v11.167" id="Stroke-9" stroke="#F10000"></path><path d="M29.027 20.182c6.009 0 11.497 2.257 15.684 5.978L29.027 44.185V20.182z" id="Fill-11" fill="#F10000"></path></g></g></g></g></g></svg>