<svg width="78" height="77" viewBox="0 0 78 77" version="1.1" xmlns="http://www.w3.org/2000/svg"><title>Trofeum ico</title><g id="1920-x-programfairplay.org" stroke="none" stroke-width="1" fill="none" fill-rule="evenodd"><g id="Desktop-HD-1440" transform="translate(-1280 -3124)" stroke="#F10000"><g id="SEKCJA3" transform="translate(490 2728)"><g id="78" transform="translate(719 397)"><g id="Trofeum-ico" transform="translate(71)"><path d="M15.539.464v28.56c0 13.195 10.697 27.773 23.893 27.773 13.196 0 23.893-14.578 23.893-27.773V.464H15.54z" id="Stroke-1" stroke-linejoin="round"></path><path d="M15.539 7h47.786" id="Stroke-3" stroke-linejoin="round"></path><path d="M39 56.8v8.572" id="Stroke-5"></path><path d="M24.605 75.155c0-5.4 6.623-9.783 14.791-9.783 8.17 0 14.792 4.383 14.792 9.783H24.605z" id="Stroke-7" stroke-linejoin="round"></path><path d="M18.689 41.862C10.098 40.33 3.52 32.778 3.52 23.764V9.778h12.018" id="Stroke-9" stroke-linejoin="round"></path><path d="M63.322 9.776H75.27v13.986c0 8.987-6.533 16.52-15.085 18.085" id="Stroke-11" stroke-linejoin="round"></path><path id="Stroke-13" stroke-linejoin="round" d="M39.432 16.776l3.854 7.804 8.613 1.253-6.235 6.076 1.475 8.578-7.707-4.05-7.706 4.05 1.475-8.578-6.235-6.076 8.613-1.253z"></path><path d="M.111 58.892c5.129 0 9.289-4.16 9.289-9.288 0 5.128 4.16 9.288 9.289 9.288-5.129 0-9.289 4.16-9.289 9.29 0-5.13-4.16-9.29-9.289-9.29z" id="Stroke-15" stroke-linejoin="round"></path><path d="M58.439 64.37c5.129 0 9.289-4.16 9.289-9.29 0 5.13 4.16 9.29 9.288 9.29-5.128 0-9.288 4.16-9.288 9.289 0-5.13-4.16-9.29-9.29-9.29z" id="Stroke-17" stroke-linejoin="round"></path></g></g></g></g></g></svg>