<svg width="61" height="77" viewBox="0 0 61 77" version="1.1" xmlns="http://www.w3.org/2000/svg"><title>Organizacje sportowe ico</title><g id="1920-x-programfairplay.org" stroke="none" stroke-width="1" fill="none" fill-rule="evenodd"><g id="Desktop-HD-1440" transform="translate(-809 -3407)" stroke="#F10000"><g id="SEKCJA3" transform="translate(490 2728)"><g id="25" transform="translate(239 680)"><g id="Organizacje-sportowe-ico" transform="translate(81)"><path d="M29.185 74.668S2.18 62.481 2.18 47.502V11.419L.267 6h58.332l-2.42 5.419v36.083c0 14.979-26.994 27.166-26.994 27.166z" id="Stroke-1" stroke-linejoin="round"></path><path d="M29.185 68.133c-8.165-4.193-21.15-13.03-21.15-20.63V11.889h42.292v35.614c0 7.633-12.977 16.45-21.142 20.63z" id="Stroke-3" stroke-linejoin="round"></path><path d="M5.333 0h48.01" id="Stroke-5"></path><path id="Stroke-7" stroke-linejoin="round" d="M29.433 23.735l3.58 7.297 8.005 1.171-5.795 5.68 1.371 8.02-7.161-3.785-7.157 3.785 1.367-8.02-5.795-5.68 8.004-1.171z"></path></g></g></g></g></g></svg>