<svg width="38" height="78" viewBox="0 0 38 78" version="1.1" xmlns="http://www.w3.org/2000/svg"><title>Volunteer icon</title><g id="1920-x-programfairplay.org" stroke="none" stroke-width="1" fill="none" fill-rule="evenodd"><g id="Desktop-HD-1440" transform="translate(-1301 -2857)" stroke="#FFF" fill="#F10000"><g id="SEKCJA3" transform="translate(490 2728)"><g id="1344" transform="translate(719 129)"><g id="Volunteer-icon" transform="translate(92)"><path d="M37.931 15.528c0-2.627-2.125-4.757-4.742-4.757-.852 0-1.671.218-2.377.64V8.636c0-.114.008-.21.008-.312a4.766 4.766 0 0 0-4.758-4.758c-.844 0-1.65.22-2.373.64C23.412 1.844 21.399 0 18.972 0c-2.427 0-4.443 1.853-4.716 4.215a4.738 4.738 0 0 0-2.394-.649c-2.617 0-4.75 2.14-4.75 4.758v14.952a6.71 6.71 0 0 0-4.297-1.583A2.827 2.827 0 0 0 0 24.518v21.276c0 5.646 2.461 10.724 6.363 14.214.05.068.109.127.155.186.206.164.403.328.6.484l-.008 16.366c0 .472.517.855 1.143.872h.105c.647-.017 1.155-.4 1.155-.872l-.017-14.728a18.544 18.544 0 0 0 2.995 1.415 1.22 1.22 0 0 0 1.567-.733 1.222 1.222 0 0 0-.727-1.57c-.362-.131-.723-.279-1.067-.439v-.02l-.118-.026a16.633 16.633 0 0 1-4.01-2.598 1.126 1.126 0 0 0-.244-.164A16.635 16.635 0 0 1 2.37 45.785V28.472l.008-3.954c0-.236.197-.438.437-.438 2.369 0 4.296 1.937 4.296 4.316v9.271c0 .657.534 1.196 1.189 1.196 5.284 0 9.593 4.308 9.593 9.613a1.189 1.189 0 1 0 2.377 0c0-6.207-4.683-11.348-10.777-11.95V8.324a2.376 2.376 0 0 1 2.369-2.37c1.306 0 2.36 1.07 2.36 2.37 0 .093-.004.173-.013.287v21.258a1.19 1.19 0 0 0 1.164 1.192H15.432a1.19 1.19 0 0 0 1.18-1.192V4.762a2.367 2.367 0 0 1 2.36-2.375 2.368 2.368 0 0 1 2.365 2.375c0 .055 0 .11-.009.177V8.02c0 .105-.008.202-.008.303 0 .101 0 .198.008.27v21.275c0 .662.534 1.192 1.189 1.192s1.197-.53 1.197-1.192V8.126c.11-1.217 1.134-2.172 2.348-2.172 1.31 0 2.369 1.07 2.369 2.37 0 .055 0 .114-.009.181v23.356c0 .644.517 1.17 1.151 1.196H29.678a1.196 1.196 0 0 0 1.15-1.196V15.76l-.008-.059c0-.059-.008-.118-.008-.164a2.386 2.386 0 0 1 2.377-2.383 2.378 2.378 0 0 1 2.365 2.383c0 .046 0 .105-.009.168v30.089c0 4.724-1.97 8.99-5.136 12.025-.084.05-.18.11-.265.185a16.302 16.302 0 0 1-5.56 3.415c-.63.227-.958.939-.723 1.57.18.497.651.809 1.142.809.139 0 .294-.025.416-.076a18.158 18.158 0 0 0 3.003-1.415v14.737c0 .472.517.855 1.151.872H29.678c.643-.017 1.15-.4 1.15-.872l-.016-16.375c.336-.282.672-.568 1-.871.033-.034.067-.067.088-.093 3.7-3.482 6.023-8.43 6.023-13.911V15.84c0-.114.008-.215.008-.312" id="Fill-1"></path></g></g></g></g></g></svg>