<svg width="82" height="74" viewBox="0 0 82 74" version="1.1" xmlns="http://www.w3.org/2000/svg"><title>Para ico</title><g id="1920-x-programfairplay.org" stroke="none" stroke-width="1" fill="none" fill-rule="evenodd"><g id="Desktop-HD-1440" transform="translate(-798 -2860)" stroke="#F10000"><g id="SEKCJA3" transform="translate(490 2728)"><g id="126" transform="translate(239 133)"><g id="Para-ico" transform="translate(70)"><path d="M29.413 36.086l13.97 6.496" id="Stroke-1"></path><g id="Group-26" transform="translate(0 .166)"><path d="M77.591 62.066c-8.465 6.062-22.088 9.995-37.44 9.995-16.851 0-31.608-4.736-39.778-11.834l4.443-17.613 14.376-6.697" id="Stroke-2"></path><path id="Stroke-4" d="M64.43 38.636L75.55 43.39l4.384 16.024"></path><path id="Stroke-6" d="M35.703 72.063l6.012-29.087 12.893-4.338"></path><path d="M10 66.348V53.991" id="Stroke-8"></path><path d="M70 66.348V53.991" id="Stroke-10"></path><path d="M46 72.063v-18.07" id="Stroke-12"></path><path d="M29.631 31.389v2.808c0 2.87-2.337 5.2-5.218 5.2-2.885 0-5.222-2.33-5.222-5.2v-2.808" id="Stroke-14"></path><path d="M64.684 34.998v2.054c0 2.87-2.33 5.2-5.21 5.2-2.893 0-5.23-2.33-5.23-5.2v-2.054" id="Stroke-16"></path><path d="M34.975 16.205v2.515c0 7.707-4.76 13.962-10.649 13.962-5.889 0-10.66-6.255-10.66-13.962v-1.27" id="Stroke-18"></path><path d="M68.885 19.898v4.787c0 6.827-4.231 12.362-9.434 12.362-5.215 0-9.434-5.535-9.434-12.362v-4.787h7.503c4.346 0 5.919-2.121 5.919-2.121s2.069 2.12 5.446 2.12z" id="Stroke-20"></path><path d="M65.34 34.267h8.93s-2.177-2.229-2.177-5.999v-7.94c0-6.965-5.67-12.615-12.658-12.615-6.996 0-13.895 5.65-13.895 12.614v7.58c0 3.711-2.471 6.36-2.471 6.36h10.47" id="Stroke-22"></path><path d="M28.365 15.01c-9.546 4.94-17.29 1.76-17.29 1.76v-6.11c0-6.967 5.672-10.604 12.66-10.604V2.04c6.997 0 12.666 1.073 12.666 8.62l.771 5.643c-5.166 0-8.267-1.568-8.267-1.568l-.54.275z" id="Stroke-24"></path></g></g></g></g></g></g></svg>