<svg width="96" height="74" viewBox="0 0 96 74" version="1.1" xmlns="http://www.w3.org/2000/svg"><title>Szkoła podstawowa ico</title><g id="1920-x-programfairplay.org" stroke="none" stroke-width="1" fill="none" fill-rule="evenodd"><g id="Desktop-HD-1440" transform="translate(-791 -3123)"><g id="SEKCJA3" transform="translate(490 2728)"><g id="35" transform="translate(239 395)"><g id="Szkoła-podstawowa-ico" transform="translate(62)"><path id="Stroke-1" stroke="#F10000" stroke-linejoin="round" d="M17.136 32.982v3.4H79.5v-3.4L48.316 18.377z"></path><path id="Stroke-2" stroke="#F10000" stroke-linejoin="round" d="M48.315 18.377V4.873h12.267v6.75h-9.48"></path><path id="Stroke-3" stroke="#F10000" d="M20.31 69.488h56.613V36.38H20.311z"></path><path id="Stroke-4" stroke="#F10000" d="M42.97 69.491h11.48v-13.66H42.97z"></path><path id="Stroke-5" stroke="#F10000" d="M27.538 49.16h8.095v-7.317h-8.095z"></path><path id="Stroke-6" stroke="#F10000" d="M44.27 49.16h8.095v-7.317H44.27z"></path><path id="Stroke-7" stroke="#F10000" d="M61.53 49.16h8.094v-7.317h-8.095z"></path><path id="Stroke-8" stroke="#F10000" d="M27.538 63.15h8.095V55.83h-8.095z"></path><path id="Stroke-9" stroke="#F10000" d="M61.53 63.15h8.094V55.83h-8.095z"></path><g id="Group-19" transform="translate(0 .42)"><g id="Group-12" transform="translate(14.736 72.795)" stroke="#F10000"><path d="M.365 0h66.641" id="Stroke-10"></path></g><path d="M4.848 55.549l-1.861-2.337a11.331 11.331 0 0 1-.436-.523 20.385 20.385 0 0 1-.494-.66 11.07 11.07 0 0 1 .072 1.512l.083 2.988 2.636-.98zm4.917 2.406l-1.735.644c-.195.072-.37.086-.525.038a1.012 1.012 0 0 1-.4-.253l-1.187-1.485-3.669 1.36.048 1.908c0 .145-.048.29-.133.44a.821.821 0 0 1-.415.321L0 61.58.19 50.443l2.29-.848 7.286 8.36z" id="Fill-13" fill="#F10000"></path><path d="M24.341 12.477c.508-.045.943-.145 1.286-.294.35-.156.624-.347.83-.575.21-.232.35-.495.428-.79.076-.297.1-.609.07-.94-.056-.672-.33-1.181-.814-1.527-.486-.347-1.224-.475-2.194-.392l-2.832.25.388 4.514 2.838-.246zm-3.744-10.35l.378 4.448 2.29-.198c.977-.086 1.694-.339 2.146-.765.442-.422.645-.993.586-1.713-.068-.786-.35-1.333-.833-1.641-.48-.312-1.203-.422-2.167-.34l-2.4.208zM22.843.111c.895-.08 1.673-.06 2.321.059.665.12 1.207.325 1.65.609a2.96 2.96 0 0 1 1.004 1.1c.233.45.374.963.422 1.545.027.335.007.664-.069.986-.072.322-.206.63-.394.921a3.43 3.43 0 0 1-.737.803c-.302.25-.662.46-1.09.647 2.033.253 3.126 1.236 3.274 2.95a4.08 4.08 0 0 1-.196 1.696 3.665 3.665 0 0 1-.87 1.388c-.395.402-.895.734-1.506.994-.61.26-1.313.422-2.122.491l-5.163.45L18.147.517l4.696-.405z" id="Fill-15" fill="#F10000"></path><path d="M90.449 48.842c.048.034.086.08.127.138a.574.574 0 0 1 .075.205l.199 1.495a4.22 4.22 0 0 1-2.157.087c-.73-.156-1.464-.51-2.214-1.056-.69-.506-1.228-1.077-1.602-1.714a4.986 4.986 0 0 1-.682-1.994c-.09-.692-.02-1.402.185-2.122.203-.723.552-1.416 1.032-2.09.49-.683 1.046-1.23 1.677-1.642a5.355 5.355 0 0 1 1.995-.803 5.187 5.187 0 0 1 2.123.076c.723.177 1.419.51 2.088.997.342.25.637.513.89.793.262.28.48.571.663.87.195.3.336.601.449.913.113.315.195.62.233.92l-1.399.444a1.194 1.194 0 0 1-.274.041c-.1.004-.2-.038-.316-.117a.574.574 0 0 1-.171-.205c-.041-.083-.09-.176-.13-.28-.038-.1-.08-.215-.127-.336a3.11 3.11 0 0 0-.549-.824 3.49 3.49 0 0 0-.541-.47 2.838 2.838 0 0 0-1.098-.506 2.543 2.543 0 0 0-1.152.024c-.394.094-.771.284-1.145.561a4.93 4.93 0 0 0-1.06 1.118c-.339.471-.575.935-.709 1.392a3.404 3.404 0 0 0-.14 1.298c.034.409.154.786.356 1.129.192.342.46.633.789.875.195.139.373.257.548.354.168.096.343.173.511.231.168.056.333.09.508.104.174.014.37.014.569-.014.082-.003.16.004.236.018.08.017.151.045.213.09" id="Fill-17" fill="#F10000"></path></g></g></g></g></g></g></svg>