<svg width="76" height="75" viewBox="0 0 76 75" version="1.1" xmlns="http://www.w3.org/2000/svg"><title>Gwizdek ico</title><g id="1920-x-programfairplay.org" stroke="none" stroke-width="1" fill="none" fill-rule="evenodd"><g id="Desktop-HD-1440" transform="translate(-562 -2864)" stroke="#F10000"><g id="SEKCJA3" transform="translate(490 2728)"><g id="21" transform="translate(0 137)"><g id="Gwizdek-ico" transform="translate(73)"><path d="M37.226 44.913c0-6.487-5.259-11.75-11.75-11.75-6.487 0-11.746 5.263-11.746 11.75 0 6.491 5.259 11.75 11.746 11.75 6.491 0 11.75-5.259 11.75-11.75z" id="Stroke-1"></path><path d="M12.897 66.342a6.319 6.319 0 0 0-6.314-6.318 6.319 6.319 0 0 0-6.314 6.318 6.318 6.318 0 0 0 6.314 6.314 6.318 6.318 0 0 0 6.314-6.314z" id="Stroke-3"></path><path d="M25.097 67.015c-12.023 0-21.768-9.744-21.768-21.768A21.66 21.66 0 0 1 7.26 32.773l.043-.073a21.852 21.852 0 0 1 8.816-7.538l10.137-4.77 2.541 2.995 10.734-5.055-.682-3.889L68.937.267l5.313 11.038-29.576 19.158-1.713 1.105 1.101 1.713c.474.736.901 1.51 1.313 2.38 5.132 10.868.408 23.989-10.526 29.252-3.45 1.66-7.769 2.017-9.028 2.086l-.724.016z" id="Stroke-5" stroke-linejoin="round"></path></g></g></g></g></g></svg>