<svg width="129" height="56" viewBox="0 0 129 56" version="1.1" xmlns="http://www.w3.org/2000/svg" xmlns:xlink="http://www.w3.org/1999/xlink"><title>LOGO SFW</title><defs><path id="path-1" d="M11.652.118v26.53H.334V.119h11.318z"/></defs><g id="320-x-programfairplay.org" stroke="none" stroke-width="1" fill="none" fill-rule="evenodd"><g id="Mobile-320" transform="translate(-95 -4300)"><g id="LOGO-SFW" transform="translate(95 4300)"><path d="M79.395 45.852c-.669 0-1.258-.014-1.847.003-.98.03-1.593.47-1.886 1.412a12.48 12.48 0 0 0-.382 1.756c-.113.725-.22 1.456-.246 2.187-.027.788.371 1.201 1.154 1.239.587.028 1.177-.044 1.766-.057.232-.006.311-.104.348-.325.182-1.075.383-2.148.572-3.222.17-.95.331-1.902.521-2.993zm-4.068 9.388c-.261-.065-.523-.122-.781-.196-1.743-.5-2.836-1.9-2.82-3.825.012-1.736.305-3.449.963-5.07.785-1.93 2.353-2.81 4.349-2.984.913-.08 1.84-.014 2.825-.014.056-.286.13-.64.195-.994.135-.75.263-1.5.395-2.248.095-.54.228-.649.791-.649.702 0 1.406-.003 2.109.002.413.004.521.148.448.557-.829 4.674-1.66 9.35-2.487 14.024-.111.63-.187.748-.823.863-.98.176-1.97.31-2.954.463-.12.019-.239.047-.358.07h-1.852z" id="Fill-1" fill="#9B9B9A"/><path d="M54.334 47.593l-.106-.023c.004-.941-.314-1.432-1.039-1.598-.938-.218-1.891.193-2.288 1.067-.233.52-.38 1.088-.491 1.648-.15.755-.292 1.522-.323 2.29-.04.943.485 1.418 1.433 1.44.983.026 1.655-.334 1.962-1.297.367-1.15.574-2.35.852-3.527zm-3.968 7.647c-.248-.062-.498-.117-.742-.186-1.717-.487-2.818-1.784-2.848-3.65-.031-1.953.338-3.864 1.256-5.618.86-1.639 2.318-2.412 4.114-2.633.862-.106 1.725-.11 2.571.104 1.748.437 2.881 1.839 2.867 3.729-.014 1.786-.357 3.54-1.104 5.18-.822 1.808-2.262 2.794-4.244 3.001-.08.01-.16.048-.24.073h-1.63z" id="Fill-3" fill="#9B9B9A"/><path d="M0 25.961c.08-.366.176-.73.243-1.1.093-.53.142-.58.692-.58.346-.001.695-.026 1.037.007.347.033.443-.136.492-.43.076-.459.153-.92.282-1.365.458-1.591 1.479-2.415 3.137-2.467.758-.024 1.52.074 2.28.13.342.026.458.222.382.561-.084.371-.14.747-.201 1.12-.08.476-.173.558-.649.561-.32 0-.642-.003-.962.002-.472.006-.696.158-.807.6-.097.39-.147.79-.238 1.281h.872c.31 0 .619.004.926 0 .257-.003.371.127.331.37a69.328 69.328 0 0 1-.306 1.698c-.04.218-.166.34-.412.335-.505-.01-1.011.005-1.517-.005-.223-.003-.322.068-.363.303-.38 2.16-.777 4.318-1.167 6.476-.122.674-.242 1.35-.361 2.025-.056.325-.232.496-.576.494-.765-.006-1.53 0-2.295-.005-.35-.003-.476-.165-.413-.52.333-1.87.671-3.739 1.002-5.608.17-.952.325-1.908.501-2.86.037-.202.008-.29-.214-.319-.39-.049-.778-.118-1.162-.202-.185-.041-.356-.136-.534-.207v-.295z" id="Fill-5" fill="#9B9B9A"/><path d="M106.483 28.635c-1.074 0-2.147.003-3.22 0-1.167-.003-2.117-.673-2.511-1.77-.707-1.962-1.413-3.924-2.117-5.886-.38-1.061-.033-2.16.888-2.796a2415.27 2415.27 0 0 1 5.289-3.65c.875-.603 2.192-.63 3.077-.04a810.28 810.28 0 0 1 5.488 3.685c.836.567 1.226 1.68.9 2.641a475.508 475.508 0 0 1-2.149 6.187c-.342.958-1.347 1.616-2.425 1.626-1.074.01-2.147.003-3.22.003" id="Fill-7" fill="#9B9B9A"/><path d="M99.817 3.833c-.708.264-1.428.5-2.12.8-.938.406-1.853.862-2.777 1.296-.189.089-.374.202-.574.245-.138.03-.356.005-.43-.085-.07-.089-.055-.316.012-.434.125-.22.293-.425.48-.599 2.503-2.334 5.48-3.777 8.807-4.49 4.824-1.033 9.533-.69 14.068 1.34a16.286 16.286 0 0 1 4.15 2.66c.185.162.37.337.494.542.08.135.127.389.052.491-.071.097-.34.127-.485.08-.349-.114-.678-.286-1.013-.443a29.253 29.253 0 0 0-7.48-2.352c-.095-.016-.195-.012-.352-.022.09.106.15.17.205.242.219.279.466.544.648.847.614 1.015.462 2.016-.412 2.826-.975.901-2.18 1.33-3.45 1.579-2.55.495-5.103.546-7.602-.266a7.559 7.559 0 0 1-2.022-1.034c-1.088-.775-1.186-1.701-.417-2.803.082-.119.17-.232.256-.347-.012-.026-.025-.05-.038-.073" id="Fill-9" fill="#9B9B9A"/><path d="M122.6 32.367c.368-.537.715-.982.995-1.465.614-1.05 1.193-2.119 1.786-3.181.072-.128.117-.286.222-.379.133-.118.321-.259.47-.245.1.01.238.272.248.427.016.289-.026.588-.084.874-.701 3.37-2.304 6.281-4.622 8.802-3.162 3.442-6.986 5.805-11.58 6.86-1.829.42-3.682.526-5.55.332a2.013 2.013 0 0 1-.634-.18c-.101-.047-.21-.199-.209-.303 0-.104.113-.263.212-.298.3-.106.614-.177.928-.234 2.708-.49 5.301-1.327 7.762-2.562.076-.038.15-.079.29-.153-.16-.044-.255-.074-.354-.096-.144-.033-.291-.054-.434-.093-1.73-.47-2.303-1.577-1.676-3.247.449-1.195 1.204-2.198 2.07-3.115 1.415-1.496 2.977-2.804 4.903-3.61.976-.407 1.988-.655 3.056-.622 1.613.052 2.317.81 2.2 2.488" id="Fill-11" fill="#9B9B9A"/><path d="M90.363 10.16c.452-.158.858-.336 1.281-.442 1.232-.308 2.009.103 2.448 1.282.418 1.127.461 2.308.388 3.488-.106 1.732-.33 3.448-.946 5.083-.563 1.492-1.403 2.795-2.778 3.672-.387.248-.829.445-1.273.56-.842.222-1.49-.097-1.925-.852-.045-.08-.095-.158-.185-.306 0 .37-.025.661.003.945.156 1.536.325 3.072.488 4.608.027.264.132.59-.187.715-.34.136-.515-.176-.646-.415-.671-1.212-1.107-2.513-1.399-3.86-.99-4.572-.382-8.985 1.448-13.247 1.474-3.436 3.667-6.323 6.779-8.467.385-.265.79-.499 1.198-.73.135-.075.301-.121.457-.129.12-.008.309.029.353.107a.47.47 0 0 1-.01.408c-.132.218-.31.41-.49.593a28.76 28.76 0 0 0-4.934 6.82c-.022.042-.038.09-.07.167" id="Fill-13" fill="#9B9B9A"/><path d="M101.472 40.324c1.303.305 2.603.62 3.911.907.552.121 1.123.162 1.675.288.179.043.325.239.485.365-.146.145-.268.346-.443.42-.242.106-.524.136-.792.163a18.375 18.375 0 0 1-8.812-1.248c-4.76-1.903-8.562-4.963-11.2-9.383a16.197 16.197 0 0 1-1.949-4.947 2.553 2.553 0 0 1-.038-.73c.01-.111.116-.283.208-.305a.462.462 0 0 1 .385.121c.167.191.297.422.417.647a28.53 28.53 0 0 0 4.834 6.624c.077.08.158.155.24.229.017.014.047.014.017.006 0-.421-.04-.862.008-1.29.152-1.362.759-1.906 2.137-1.925 1.176-.016 2.294.284 3.38.709 1.766.691 3.446 1.539 4.841 2.849 1.143 1.073 2.003 2.331 2.34 3.89.046.214.068.437.075.656.032 1.006-.408 1.557-1.395 1.773-.095.022-.192.041-.289.06-.01.04-.022.08-.035.121" id="Fill-15" fill="#9B9B9A"/><g id="Group-19" transform="translate(117.317 4.726)"><mask id="mask-2" fill="#fff"><use xlink:href="#path-1"/></mask><path d="M9.223 16.937c-.066.17-.106.252-.131.339-.42 1.373-1.396 1.882-2.778 1.444-1.15-.361-1.982-1.14-2.663-2.079-1.397-1.924-2.198-4.1-2.588-6.43C.868 9.05.81 7.887 1.11 6.738 1.547 5.058 2.52 4.561 4.167 5.14c.021.006.046 0 .134 0-.09-.14-.151-.267-.24-.368C2.996 3.563 1.927 2.36.86 1.154.703.98.518.826.396.632.329.529.309.319.372.232.434.147.657.09.757.134c.538.24 1.085.475 1.58.79C5.722 3.072 8.06 6.1 9.682 9.714c.957 2.132 1.59 4.36 1.836 6.678.337 3.154.07 6.25-1.172 9.21-.14.334-.352.64-.558.94-.052.076-.233.13-.317.097-.087-.034-.184-.185-.182-.283.008-.404.052-.807.08-1.21.088-1.283.256-2.57.24-3.85-.016-1.37-.206-2.737-.322-4.105-.005-.054-.027-.108-.065-.254" id="Fill-17" fill="#9B9B9A" mask="url(#mask-2)"/></g><path d="M34.025 51.715c.074-.128.162-.25.22-.383.768-1.742 1.548-3.477 2.286-5.23.306-.728.773-1.097 1.584-1.037.503.037 1.012.004 1.517.007.666.004.902.221.958.899.143 1.774.279 3.548.42 5.323.01.118.024.235.035.353l.114.033c.067-.137.148-.271.197-.416.834-2.49 1.664-4.98 2.495-7.472.17-.506.22-.546.767-.55h2.036c.534.002.621.118.44.617a4390.33 4390.33 0 0 1-2.317 6.4c-.406 1.12-.809 2.24-1.222 3.355-.39 1.048-.942 1.42-2.072 1.424-.457 0-.914.008-1.37-.002-.847-.015-1.305-.435-1.376-1.27-.15-1.713-.289-3.426-.433-5.139-.01-.113-.026-.227-.04-.339l-.1-.024c-.065.119-.14.234-.195.356-.732 1.678-1.47 3.35-2.189 5.032-.401.94-1.067 1.44-2.12 1.39-.493-.025-.987.009-1.48-.02-.801-.049-1.212-.49-1.218-1.28-.027-2.924-.05-5.847-.076-8.77-.003-.405-.02-.81-.014-1.216.006-.373.142-.507.523-.51.728-.008 1.455.002 2.183-.005.331-.001.483.112.475.479-.058 2.529-.098 5.059-.142 7.588-.002.126.012.252.019.379l.095.028" id="Fill-20" fill="#9B9B9A"/><path d="M42.77 33.41c.723.023 1.394.088 2.061.058.825-.04 1.375-.52 1.635-1.283.171-.509.3-1.034.395-1.563.136-.758.283-1.522.321-2.29.053-1.054-.44-1.511-1.487-1.513-.296 0-.593 0-.887.006-.847.02-.865.02-1.017.851-.342 1.866-.666 3.735-1.02 5.734m1.66-9.196c.472-.031.91-.093 1.348-.08.625.019 1.267.01 1.868.158 1.695.418 2.78 1.668 2.819 3.395.042 1.924-.256 3.822-1.072 5.59-.812 1.763-2.31 2.594-4.171 2.832-1.845.235-3.66-.02-5.457-.439-.582-.136-.625-.238-.52-.824.461-2.58.913-5.163 1.37-7.744.37-2.1.743-4.198 1.116-6.297.062-.35.252-.536.632-.53.754.013 1.507.013 2.26.004.331-.005.453.147.4.453-.163.953-.332 1.907-.497 2.86-.033.19-.059.38-.097.622" id="Fill-22" fill="#9B9B9A"/><path d="M58.027 26.802c-.377.019-.664.006-.942.052-.796.132-1.26.67-1.473 1.389-.225.76-.374 1.544-.521 2.325-.106.564-.203 1.137-.217 1.708-.023.85.488 1.304 1.338 1.21.421-.048.829-.214 1.241-.327.6-.166.902-.505.994-1.172.216-1.588.536-3.16.817-4.738.038-.215.007-.35-.264-.36-.355-.013-.708-.062-.973-.087m.212 8.241c-.198.132-.339.223-.48.316-1.11.733-2.32 1.007-3.627.733-1.25-.264-2.16-1.315-2.41-2.692-.203-1.111-.057-2.2.168-3.283.18-.862.322-1.743.614-2.569.692-1.959 2.186-3.008 4.2-3.326 1.8-.285 3.585-.04 5.355.324.952.196.93.202.759 1.16-.44 2.46-.861 4.922-1.29 7.383-.142.808-.29 1.615-.427 2.425-.062.358-.276.488-.623.481-.58-.01-1.16 0-1.74-.003-.484-.003-.518-.044-.5-.54.005-.109.001-.217.001-.409" id="Fill-24" fill="#9B9B9A"/><path d="M65.086 10.017c.028-.117.058-.21.076-.304.272-1.489-.393-2.187-1.91-2.056-1.14.1-1.905 1.28-1.962 2.36h3.796zm-.793 2.056c-1.037 0-2.074.006-3.11-.007-.251-.003-.37.08-.372.325l-.001.038c-.15 1.412.315 1.951 1.744 1.926 1.282-.022 2.563-.098 3.843-.17.607-.035.685.03.574.619-.084.445-.138.9-.259 1.335-.047.172-.215.396-.37.439-1.692.451-3.427.7-5.164.478-2.443-.312-3.726-1.85-3.61-4.294.073-1.53.318-3.056.953-4.478.895-2.005 2.49-3.037 4.653-3.264.892-.095 1.778-.09 2.627.233 1.512.578 2.264 1.74 2.485 3.295.148 1.043-.098 2.05-.279 3.064-.06.336-.27.465-.604.462-1.036-.008-2.073-.001-3.11-.001z" id="Fill-26" fill="#9B9B9A"/><path d="M49.026 10.031h3.067c.921 0 .942-.019.918-.964-.012-.485-.13-.929-.582-1.202-.751-.451-2.094-.229-2.649.447-.396.483-.63 1.044-.754 1.72zm-.384 2.041c-.024.346-.062.64-.059.932.011.805.39 1.27 1.202 1.3 1.118.041 2.242-.008 3.361-.033.419-.01.837-.072 1.254-.094.355-.021.457.083.401.434a19.257 19.257 0 0 1-.306 1.59c-.033.143-.18.334-.309.365-1.866.47-3.764.783-5.67.406-2.065-.407-3.22-1.881-3.162-3.976.041-1.525.293-3.034.862-4.463.861-2.167 2.51-3.293 4.817-3.52.895-.088 1.777-.062 2.625.26 1.508.573 2.465 1.996 2.457 3.814-.004.851-.19 1.703-.317 2.551-.049.333-.293.439-.624.437-2.012-.007-4.024-.003-6.036-.003h-.496z" id="Fill-28" fill="#9B9B9A"/><path d="M25.358 26.893c-1.007 0-1.741.484-2.03 1.548-.298 1.094-.496 2.223-.642 3.349-.115.893.319 1.43 1.11 1.602 1.164.254 2.147-.343 2.495-1.63.268-.989.459-2.006.593-3.024.16-1.188-.425-1.845-1.526-1.845m-5.936 4.739c.216-1.5.398-3.333 1.336-4.978.807-1.414 2.073-2.164 3.645-2.432.951-.163 1.919-.193 2.863.025 1.687.39 2.868 1.678 2.902 3.418.04 2.15-.333 4.25-1.453 6.144-.838 1.417-2.16 2.1-3.76 2.304-.897.116-1.796.146-2.676-.105-1.866-.532-2.859-1.948-2.857-4.376" id="Fill-30" fill="#9B9B9A"/><path d="M13.574 26.893c-.93 0-1.687.417-1.936 1.304-.337 1.197-.599 2.43-.74 3.664-.119 1.042.517 1.582 1.582 1.572 1.015-.01 1.717-.522 2.02-1.667.28-1.05.496-2.13.6-3.209.096-.985-.378-1.692-1.526-1.664m.42-2.805c.774.013 1.529.087 2.239.412 1.235.565 1.886 1.55 2.12 2.86.183 1.033-.058 2.023-.234 3.022-.196 1.114-.474 2.204-1.043 3.2-.895 1.562-2.27 2.355-4.042 2.544-.917.097-1.82.11-2.708-.166-1.592-.492-2.668-1.876-2.672-3.547-.001-2.033.348-4.006 1.351-5.806.785-1.408 2.07-2.127 3.632-2.388.447-.074.906-.088 1.357-.13" id="Fill-32" fill="#9B9B9A"/><path d="M21.931 17.18c-.927-.13-2.015-.26-3.093-.446-.604-.106-.642-.215-.54-.807.072-.423.152-.844.228-1.267.082-.449.196-.54.65-.502 1.043.085 2.086.19 3.13.257a3.72 3.72 0 0 0 1.023-.092c.59-.13.812-.8.422-1.264-.162-.193-.384-.344-.6-.483-.689-.453-1.379-.908-2.086-1.33-1.184-.708-1.626-1.763-1.496-3.089.125-1.275.8-2.167 1.969-2.682 1.04-.456 2.151-.566 3.263-.492 1.003.066 2 .254 2.994.42.473.079.549.233.47.694-.083.472-.164.944-.254 1.415-.086.448-.157.49-.625.456-1.155-.08-2.311-.156-3.467-.232a1.785 1.785 0 0 0-.26.002c-.31.025-.585.12-.702.443-.127.346.028.606.303.793.51.344 1.035.667 1.553.999.352.226.703.454 1.058.675 1.756 1.096 1.745 3.01 1.016 4.368-.618 1.15-1.673 1.704-2.912 1.93-.617.113-1.247.146-2.044.235" id="Fill-34" fill="#9B9B9A"/><path d="M34.605 7.615a2773.41 2773.41 0 0 0-.687 3.808c-.142.784-.285 1.567-.421 2.354-.118.675.004.82.686.827.296.003.593.003.888 0 .247-.003.383.1.34.355-.09.544-.174 1.09-.3 1.627-.034.135-.203.311-.337.338-.984.205-1.977.292-2.97.063-1.305-.3-1.88-1.162-1.672-2.72.273-2.04.674-4.064 1.018-6.096.029-.167.053-.336.084-.541l-1.506-.26c-.387-.067-.472-.19-.41-.582.057-.363.114-.726.174-1.089.065-.385.257-.548.656-.553.406-.004.814-.007 1.221.002.219.005.333-.047.36-.297.041-.402.147-.797.196-1.198.046-.374.234-.57.604-.628.815-.131 1.627-.276 2.442-.41.361-.059.487.053.43.427-.103.676-.232 1.35-.363 2.103h1.227c.149 0 .296.003.444.001.293-.004.409.16.364.425a39.523 39.523 0 0 1-.292 1.593c-.061.303-.252.46-.577.455-.528-.01-1.055-.004-1.6-.004" id="Fill-36" fill="#9B9B9A"/><path d="M75.762 5.145H77.3c.425.003.52.092.458.5-.076.522-.184 1.04-.288 1.555-.057.277-.24.417-.528.416-.457-.002-.913.008-1.37-.002-.2-.005-.287.073-.32.264-.352 2.019-.714 4.035-1.06 6.054-.088.513.032.647.55.667.334.014.668.011 1 .002.31-.008.434.13.377.43-.092.495-.163.994-.29 1.48-.041.16-.206.376-.35.407-1.018.221-2.05.311-3.076.041-1.04-.274-1.616-.925-1.57-1.992.046-1.072.23-2.142.397-3.206.204-1.309.455-2.61.685-3.915.01-.058 0-.121 0-.22-.492-.086-.985-.17-1.478-.257-.39-.067-.485-.19-.425-.577.057-.378.135-.75.197-1.126.058-.365.276-.526.639-.522.407.004.814-.013 1.22.006.259.011.343-.1.374-.333.06-.425.15-.846.211-1.27.043-.302.23-.46.506-.51.85-.15 1.7-.293 2.553-.427.334-.052.462.106.4.464-.102.581-.212 1.159-.316 1.74-.016.093-.02.188-.034.331" id="Fill-38" fill="#9B9B9A"/><path d="M37.537 26.682c-.976 0-.959.004-1.127.976-.292 1.702-.607 3.4-.913 5.1-.013.071-.03.144-.036.217-.058.618.055.743.678.753.295.003.593.01.888-.002.274-.013.401.101.357.37-.09.53-.173 1.063-.302 1.586a.54.54 0 0 1-.347.327c-1.02.197-2.05.296-3.072.015-.944-.257-1.511-.898-1.484-1.862.028-.987.166-1.974.317-2.952.219-1.415.485-2.824.743-4.234.04-.215-.017-.284-.223-.314-.414-.058-.823-.15-1.237-.207-.333-.046-.488-.199-.43-.541.067-.387.116-.775.19-1.16.063-.318.253-.487.599-.476.405.013.814-.014 1.22.008.27.014.374-.096.408-.346.05-.375.123-.748.182-1.123.075-.479.19-.594.679-.675.74-.121 1.479-.247 2.22-.367.511-.084.613.026.518.546-.1.541-.178 1.09-.3 1.626-.067.298.057.34.3.336.43-.008.864.006 1.295-.005.309-.008.433.125.382.425-.087.507-.165 1.015-.27 1.518-.06.29-.23.482-.569.463-.22-.011-.444-.002-.666-.002" id="Fill-40" fill="#9B9B9A"/><path d="M67.521 55.037c-.369 0-.74.004-1.11 0-.434-.003-.542-.134-.465-.57.145-.846.298-1.692.447-2.536.711-4.022 1.423-8.043 2.133-12.065.083-.468.24-.603.72-.605.728-.001 1.456-.003 2.183 0 .432.002.54.119.466.532-.321 1.836-.651 3.672-.976 5.508-.534 3.018-1.069 6.038-1.601 9.056-.1.568-.222.679-.798.68h-.999" id="Fill-42" fill="#9B9B9A"/><path d="M70.847 35.992c-.382 0-.764.006-1.146-.002-.346-.008-.472-.153-.414-.488.225-1.29.46-2.579.688-3.867.41-2.302.818-4.605 1.226-6.906.23-1.303.452-2.605.686-3.907.076-.42.225-.537.653-.54.74-.005 1.481-.005 2.22-.002.425.003.495.1.422.513-.606 3.435-1.208 6.872-1.812 10.307-.248 1.411-.497 2.82-.75 4.232-.106.582-.211.661-.81.66h-.962" id="Fill-44" fill="#9B9B9A"/><path d="M65.016 35.991c-.394 0-.789.008-1.184-.003-.325-.008-.431-.156-.374-.475.855-4.847 1.71-9.691 2.567-14.537.106-.6.212-.693.821-.695.704-.002 1.406-.005 2.11 0 .37.003.473.12.41.474-.402 2.265-.808 4.53-1.21 6.795-.459 2.58-.915 5.16-1.367 7.74-.105.598-.208.701-.81.703h-.963v-.002z" id="Fill-46" fill="#9B9B9A"/><path d="M63.352 43.883c.553-.222 1.129-.489 1.728-.677.344-.109.73-.096 1.097-.121.292-.02.453.128.406.426a63.086 63.086 0 0 1-.346 1.956c-.054.276-.24.394-.539.387-.894-.026-1.73.228-2.527.606a.584.584 0 0 0-.288.364c-.457 2.512-.9 5.025-1.343 7.538-.1.567-.222.674-.806.676-.702 0-1.406.001-2.11-.002-.417-.003-.532-.134-.46-.543.376-2.126.757-4.253 1.136-6.379.256-1.436.51-2.875.769-4.311.077-.428.234-.557.678-.56.617-.004 1.234 0 1.852 0 .762 0 .762 0 .753.64" id="Fill-48" fill="#9B9B9A"/><path d="M42.254 5.908c.582-.447 1.158-.77 1.836-.851.33-.04.661-.08.993-.085.36-.008.48.132.423.473a91.996 91.996 0 0 1-.333 1.847c-.057.308-.231.461-.566.447-.897-.037-1.728.237-2.525.61-.135.062-.267.255-.294.408-.46 2.52-.903 5.045-1.349 7.57-.084.466-.246.61-.716.612-.715.001-1.43.003-2.145-.002-.443-.001-.56-.136-.486-.559l1.885-10.69c.073-.404.241-.541.655-.543.666-.003 1.332 0 1.998 0 .677 0 .7.025.624.763" id="Fill-50" fill="#9B9B9A"/></g></g></g></svg>