<?xml version="1.0" encoding="UTF-8"?>
<svg width="79px" height="36px" viewBox="0 0 79 36" version="1.1" xmlns="http://www.w3.org/2000/svg" xmlns:xlink="http://www.w3.org/1999/xlink">
    <!-- Generator: Sketch 43.1 (39012) - http://www.bohemiancoding.com/sketch -->
    <title>LOGO MSIS</title>
    <desc>Created with Sketch.</desc>
    <defs>
        <polygon id="path-1" points="0.149274629 0.0511401869 6.50616817 0.0511401869 6.50616817 6.46682804 0.149274629 6.46682804 0.149274629 0.0511401869"></polygon>
        <polygon id="path-3" points="3.10135515e-17 5.60234019 3.10135515e-17 0.0433682243 5.5114322 0.0433682243 5.5114322 5.60234019 -1.06581782e-16 5.60234019"></polygon>
    </defs>
    <g id="320-x-programfairplay.org" stroke="none" stroke-width="1" fill="none" fill-rule="evenodd">
        <g id="Mobile-320" transform="translate(-120.000000, -4033.000000)">
            <g id="LOGO-MSIS" transform="translate(120.000000, 4033.000000)">
                <path d="M64.0213641,31.7949981 L67.5339145,31.7949981 C67.5280749,32.3832785 67.6502042,32.7668299 67.8966316,32.9377458 C68.0719838,33.0549981 68.2947195,33.1147178 68.5668408,33.1365869 C68.8506412,33.1544187 69.7198943,33.1702318 71.1884484,33.1862131 C72.7200691,33.1841944 73.6405432,33.1702318 73.9502042,33.1524 C74.2673731,33.1384374 74.5079611,33.0967178 74.6853154,33.0152972 C74.9494282,32.9099888 75.0894097,32.6038206 75.0894097,32.1129421 C75.0894097,31.7532785 74.9888032,31.5088486 74.8074447,31.3934467 C74.6104028,31.2741757 74.2320024,31.2105869 73.652389,31.1966243 C73.1932365,31.1966243 72.250906,31.1591103 70.8080458,31.085428 C69.3158001,31.0178019 68.3519468,30.9821383 67.9044733,30.966157 C67.0293806,30.9382318 66.3591713,30.8527738 65.8898414,30.7118019 C65.4248493,30.5767178 65.0602969,30.3501196 64.803692,30.0380636 C64.3543832,29.5253159 64.1157974,28.6646804 64.1157974,27.4502692 C64.1157974,26.094886 64.3800771,25.1388673 64.8926194,24.5803626 C65.284701,24.1451664 65.8840019,23.8707925 66.6921904,23.749671 C67.5005458,23.6263626 69.1442852,23.5668112 71.6260781,23.5668112 C73.3784325,23.5668112 74.6063986,23.6204748 75.3201539,23.7158579 C76.4121427,23.8728112 77.1631041,24.1789794 77.5692005,24.6360449 C77.977299,25.101185 78.1841846,25.8802318 78.1841846,26.9674654 C78.1841846,27.0687364 78.1801803,27.2574841 78.1723387,27.5316897 L74.653782,27.5316897 C74.6380988,27.1997832 74.6104028,26.9674654 74.5670236,26.844157 C74.5294838,26.7230355 74.4448943,26.6215963 74.3109192,26.5401757 C74.1550877,26.4486617 73.8829664,26.3929794 73.4790389,26.3632037 C73.0846216,26.3374654 72.250906,26.3214841 70.9737211,26.3214841 C69.4262503,26.3214841 68.4899261,26.373129 68.1509007,26.4664935 C67.8157127,26.5679327 67.6463668,26.8381009 67.6463668,27.2714467 C67.6463668,27.6987364 67.8157127,27.9530916 68.1509007,28.0466243 C68.4326989,28.1280449 69.7140548,28.1997084 71.998639,28.269185 C73.9243435,28.3287364 75.2173784,28.4002318 75.8638959,28.4819888 C76.5145845,28.5533159 77.02696,28.7064 77.4115336,28.9311477 C77.8491634,29.1912224 78.1564886,29.5589607 78.3340098,30.0180449 C78.5152015,30.4811664 78.6098016,31.1429607 78.6098016,32.0076336 C78.6098016,33.1365869 78.4601433,33.9810729 78.1544865,34.5336897 C77.9299155,34.9352411 77.6125797,35.2392224 77.2084854,35.4358766 C76.8003869,35.6367364 76.2307842,35.7699701 75.4993435,35.8495402 C74.7168488,35.9149794 73.25013,35.9487925 71.1056941,35.9487925 C69.3119627,35.9487925 67.9934007,35.9010168 67.1356597,35.8116897 C66.2842587,35.718157 65.6395765,35.5492598 65.205951,35.3068486 C64.7604796,35.0484561 64.4489833,34.7104935 64.2754664,34.2872411 C64.1061205,33.8660075 64.0213641,33.2238953 64.0213641,32.3533346 L64.0213641,31.7949981 Z M58.9535013,35.7699701 L62.7717084,35.7699701 L62.7717084,23.7575776 L58.9535013,23.7575776 L58.9535013,35.7699701 Z M43.1092349,31.7949981 L46.6277916,31.7949981 C46.6219521,32.3832785 46.7380749,32.7668299 46.9846692,32.9377458 C47.1600215,33.0549981 47.380755,33.1147178 47.6587158,33.1365869 C47.9385119,33.1544187 48.8099341,33.1702318 50.2724817,33.1862131 C51.8079399,33.1841944 52.7364224,33.1702318 53.0360728,33.1524 C53.3495712,33.1384374 53.5939966,33.0967178 53.7771904,33.0152972 C54.0433053,32.9099888 54.1752783,32.6038206 54.1752783,32.1129421 C54.1752783,31.7532785 54.0846825,31.5088486 53.8894759,31.3934467 C53.6982736,31.2741757 53.3180379,31.2105869 52.7384245,31.1966243 C52.2869468,31.1966243 51.3429478,31.1591103 49.8902439,31.085428 C48.409844,31.0178019 47.4439886,30.9821383 46.994513,30.966157 C46.1212556,30.9382318 45.4392005,30.8527738 44.9760437,30.7118019 C44.5108848,30.5767178 44.1461655,30.3501196 43.8878922,30.0380636 C43.4344123,29.5253159 43.2098414,28.6646804 43.2098414,27.4502692 C43.2098414,26.094886 43.4699499,25.1388673 43.9786549,24.5803626 C44.3709033,24.1451664 44.9680352,23.8707925 45.7722195,23.749671 C46.5825771,23.6263626 48.2323228,23.5668112 50.7121136,23.5668112 C52.4684722,23.5668112 53.6924341,23.6204748 54.4060225,23.7158579 C55.5000135,23.8728112 56.2549791,24.1789794 56.6610755,24.6360449 C57.0651698,25.101185 57.2680511,25.8802318 57.2680511,26.9674654 C57.2680511,27.0687364 57.2662158,27.2574841 57.2622116,27.5316897 L53.7436549,27.5316897 C53.7279717,27.1997832 53.6982736,26.9674654 53.6629028,26.844157 C53.6115151,26.7230355 53.5249235,26.6215963 53.4026274,26.5401757 C53.2469627,26.4486617 52.9690019,26.3929794 52.5749182,26.3632037 C52.1766634,26.3374654 51.3429478,26.3214841 50.0595898,26.3214841 C48.5101168,26.3214841 47.5759616,26.373129 47.2351009,26.4664935 C46.901915,26.5679327 46.7243938,26.8381009 46.7243938,27.2714467 C46.7243938,27.6987364 46.901915,27.9530916 47.2351009,28.0466243 C47.5209033,28.1280449 48.8040945,28.1997084 51.0845077,28.269185 C53.0142164,28.3287364 54.3014118,28.4002318 54.9539356,28.4819888 C55.6004531,28.5533159 56.1169997,28.7064 56.4935649,28.9311477 C56.9370342,29.1912224 57.2445262,29.5589607 57.4277201,30.0180449 C57.6072434,30.4811664 57.6940019,31.1429607 57.6940019,32.0076336 C57.6940019,33.1365869 57.5460119,33.9810729 57.2445262,34.5336897 C57.0197884,34.9352411 56.7044547,35.2392224 56.2925188,35.4358766 C55.8962662,35.6367364 55.3208239,35.7699701 54.5873811,35.8495402 C53.8048864,35.9149794 52.3383345,35.9487925 50.195567,35.9487925 C48.4058398,35.9487925 47.0832736,35.9010168 46.2216952,35.8116897 C45.3721295,35.718157 44.7274473,35.5492598 44.2939886,35.3068486 C43.8465151,35.0484561 43.5371878,34.7104935 43.3594997,34.2872411 C43.1939913,33.8660075 43.1092349,33.2238953 43.1092349,32.3533346 L43.1092349,31.7949981 Z M21.6375135,23.7575776 L28.2231491,23.7575776 L31.7652307,31.5564561 L35.3113165,23.7575776 L41.8575771,23.7575776 L41.8575771,35.7699701 L38.2779558,35.7699701 L38.3667164,26.7787178 L37.7714198,26.7787178 L33.2751618,35.7699701 L30.2613059,35.7699701 L25.7670501,26.7787178 L25.12437,26.7787178 L25.2131306,35.7699701 L21.6375135,35.7699701 L21.6375135,23.7575776 Z" id="Fill-1" fill="#9B9B9A"></path>
                <g id="Group-5" transform="translate(13.847987, 0.117084)">
                    <mask id="mask-2" fill="white">
                        <use xlink:href="#path-1"></use>
                    </mask>
                    <g id="Clip-4"></g>
                    <path d="M3.32480164,0.0510897196 C5.08099338,0.0510897196 6.50616817,1.48604299 6.50616817,3.26097757 C6.50616817,5.02783738 5.08099338,6.46682804 3.32480164,6.46682804 C1.56644094,6.46682804 0.149274629,5.02783738 0.149274629,3.26097757 C0.149274629,1.48604299 1.56644094,0.0510897196 3.32480164,0.0510897196" id="Fill-3" fill="#9B9B9A" mask="url(#mask-2)"></path>
                </g>
                <path d="M24.6454632,10.7396075 C24.0698541,10.7396075 23.6065305,10.2726168 23.6065305,9.69224299 C23.6065305,9.11792523 24.0698541,8.64084112 24.6454632,8.64084112 C25.2150659,8.64084112 25.6880665,9.11792523 25.6880665,9.69224299 C25.6880665,10.2726168 25.2150659,10.7396075 24.6454632,10.7396075 M21.2510379,12.1249346 C20.4980744,12.1249346 19.8830903,11.5046916 19.8830903,10.7375888 C19.8830903,9.98428037 20.4980744,9.36033645 21.2510379,9.36033645 C22.0120098,9.36033645 22.6269939,9.98428037 22.6269939,10.7375888 C22.6269939,11.5046916 22.0120098,12.1249346 21.2510379,12.1249346 M17.358085,13.0510093 C16.4749838,13.0510093 15.7555559,12.3335327 15.7555559,11.4451402 C15.7555559,10.5528785 16.4749838,9.83725234 17.358085,9.83725234 C18.2411862,9.83725234 18.958612,10.5528785 18.958612,11.4451402 C18.958612,12.3335327 18.2411862,13.0510093 17.358085,13.0510093 M13.2797693,12.8780748 C12.19362,12.8780748 11.3086835,11.9937196 11.3086835,10.8945421 C11.3086835,9.78964486 12.19362,8.9031028 13.2797693,8.9031028 C14.3717582,8.9031028 15.2548594,9.78964486 15.2548594,10.8945421 C15.2548594,11.9937196 14.3717582,12.8780748 13.2797693,12.8780748 M8.74797378,11.1986916 C7.50415757,11.1986916 6.50092929,10.1811028 6.50092929,8.92497196 C6.50092929,7.6728785 7.50415757,6.6593271 8.74797378,6.6593271 C9.99178999,6.6593271 11.0030267,7.6728785 11.0030267,8.92497196 C11.0030267,10.1811028 9.99178999,11.1986916 8.74797378,11.1986916 M3.94422378,2.46970093 C5.47000503,2.46970093 6.69997325,3.708 6.69997325,5.2442243 C6.69997325,6.78246729 5.47000503,8.02665421 3.94422378,8.02665421 C2.42645101,8.02665421 1.19448067,6.78246729 1.19448067,5.2442243 C1.19448067,3.708 2.42645101,2.46970093 3.94422378,2.46970093" id="Fill-6" fill="#9B9B9A"></path>
                <g id="Group-10" transform="translate(-0.000000, 28.378766)">
                    <mask id="mask-4" fill="white">
                        <use xlink:href="#path-3"></use>
                    </mask>
                    <g id="Clip-9"></g>
                    <path d="M2.75568273,0.0433682243 C4.27545763,0.0433682243 5.5114322,1.28957383 5.5114322,2.8220972 C5.5114322,4.36017196 4.27545763,5.60234019 2.75568273,5.60234019 C1.23207044,5.60234019 -6.67372881e-05,4.36017196 -6.67372881e-05,2.8220972 C-6.67372881e-05,1.28957383 1.23207044,0.0433682243 2.75568273,0.0433682243" id="Fill-8" fill="#9B9B9A" mask="url(#mask-4)"></path>
                </g>
                <path d="M6.86362977,27.0865178 C5.50152172,27.0865178 4.40169121,25.9775832 4.40169121,24.6082374 C4.40169121,23.2348542 5.50152172,22.1218822 6.86362977,22.1218822 C8.22557097,22.1218822 9.33140784,23.2348542 9.33140784,24.6082374 C9.33140784,25.9775832 8.22557097,27.0865178 6.86362977,27.0865178" id="Fill-11" fill="#9B9B9A"></path>
                <path d="M11.0306393,21.7145103 C9.94265466,21.7145103 9.05554926,20.8240991 9.05554926,19.7250897 C9.05554926,18.6299495 9.94265466,17.7355009 11.0306393,17.7355009 C12.1246303,17.7355009 13.0077315,18.6299495 13.0077315,19.7250897 C13.0077315,20.8240991 12.1246303,21.7145103 11.0306393,21.7145103" id="Fill-13" fill="#9B9B9A"></path>
                <path d="M15.4105074,19.0074785 C14.5314105,19.0074785 13.8238284,18.2839458 13.8238284,17.3957215 C13.8238284,16.5032916 14.5314105,15.7837963 15.4105074,15.7837963 C16.2996149,15.7837963 17.0112013,16.5032916 17.0112013,17.3957215 C17.0112013,18.2839458 16.2996149,19.0074785 15.4105074,19.0074785" id="Fill-15" fill="#9B9B9A"></path>
                <path d="M19.3154396,18.1628243 C18.5564698,18.1628243 17.9434878,17.5407308 17.9434878,16.7815346 C17.9434878,16.0144318 18.5564698,15.3962075 19.3154396,15.3962075 C20.066401,15.3962075 20.6833872,16.0144318 20.6833872,16.7815346 C20.6833872,17.5407308 20.066401,18.1628243 19.3154396,18.1628243" id="Fill-17" fill="#9B9B9A"></path>
                <path d="M22.7787378,19.3633234 C22.1105307,19.3633234 21.5606155,18.8086879 21.5606155,18.1310804 C21.5606155,17.4533047 22.1105307,16.8968187 22.7787378,16.8968187 C23.4547865,16.8968187 24.0008644,17.4533047 24.0008644,18.1310804 C24.0008644,18.8086879 23.4547865,19.3633234 22.7787378,19.3633234" id="Fill-19" fill="#9B9B9A"></path>
                <path d="M25.2722598,21.9449944 C24.7044923,21.9449944 24.2334939,21.4721159 24.2334939,20.8956112 C24.2334939,20.3172561 24.7044923,19.8423589 25.2722598,19.8423589 C25.8518731,19.8423589 26.3188673,20.3172561 26.3188673,20.8956112 C26.3188673,21.4721159 25.8518731,21.9449944 25.2722598,21.9449944" id="Fill-21" fill="#9B9B9A"></path>
            </g>
        </g>
    </g>
</svg>